<svg xmlns="http://www.w3.org/2000/svg">
    <!--Меню - статистика-->
    <symbol id="stata" viewBox="0 0 16 15">
        <path d="M14.5,14V3h-4V0h-5v9h-4v5H0v1h1.5h4h1h3h1h4H16v-1H14.5z M2.5,14v-4h3v4H2.5z M6.5,14V9V1h3v2v11H6.5z M10.5,14V4h3v10  H10.5z"/>
    </symbol>
    <!--Информация об игре - всего заключенных-->
    <symbol id="prison" viewBox="0 0 32 32">
       <g fill="none" fill-rule="evenodd"><path d="m0 0h32v32h-32z"/><path d="m0 32v-2h5v-30h22v30h5v2zm25-30h-18v28h18zm-3 11v8h-2v-8z" fill="#000" fill-rule="nonzero"/></g>
    </symbol>
    <!--Информация об игре - свободных заключенных-->
    <symbol id="open-door" viewBox="0 0 1024 1024">
        <g>
            <path d="M932.254,490.726L772.835,331.315c-11.754-11.755-30.775-11.771-42.53-0.094c-11.786,11.684-11.896,30.748-0.267,42.582
                L836.411,482H408.187c-16.636,0-30.132,13.357-30.132,30s13.497,30,30.132,30H838.2L730.21,650.055
                c-11.755,11.763-11.755,30.887,0,42.649c5.885,5.885,13.606,8.848,21.312,8.848c7.706,0,15.427-2.933,21.312-8.818l159.419-159.406
                c5.649-5.65,8.82-13.314,8.82-21.302C941.073,504.039,937.903,496.375,932.254,490.726z"/>
            <path d="M698.927,787.552c-16.636,0-30,13.489-30,30.132V964h-526V60h526v146.376c0,16.643,13.364,30.132,30,30.132
                c16.635,0,30-13.489,30-30.132V29.914C728.927,13.27,715.238,0,698.603,0H113.032C96.397,0,82.927,13.27,82.927,29.914v964.233
                c0,16.643,13.47,29.854,30.106,29.854h585.571c16.635,0,30.324-13.21,30.324-29.854V817.684
                C728.927,801.041,715.562,787.552,698.927,787.552z"/>
        </g>
    </symbol>
    <!--Информация об игре - к-во открытых коробок-->
    <symbol id="open-box" viewBox="0 0 459 459">
        <path d="M124.95,181.05l-35.7,35.7L204,331.5l255-255l-35.7-35.7L204,260.1L124.95,181.05z M408,408H51V51h255V0H51C22.95,0,0,22.95,0,51v357c0,28.05,22.95,51,51,51h357c28.05,0,51-22.95,51-51V204h-51V408z" />
    </symbol>
    <!--Информация об игре - к-во свободных заключенных-->
    <symbol id="freedom" viewBox="0 0 128 128">
        <g>
            <polygon points="43,45 43,81 53,81 53,127 81,127 81,81 91,81 91,45 83,45 83,73 73,73 73,119 61,119 61,73 51,73 51,45  "/>
            <path d="M81,15c0-7.7-6.3-14-14-14S53,7.3,53,15s6.3,14,14,14S81,22.7,81,15z M61,15c0-3.3,2.7-6,6-6s6,2.7,6,6s-2.7,6-6,6   S61,18.3,61,15z"/>
        </g>
    </symbol>
    <symbol id="coffin" viewBox="0 0 362.802 362.802">
        <path d="M192.739,79.363h-22.675v22.675h-22.675v22.675h22.675v45.35h22.675v-45.35h22.675v-22.675h-22.675V79.363z M249.427,0
				H113.376l-45.35,124.713l68.025,238.089h90.701l68.025-238.089L249.427,0z M204.076,340.127h-45.35L90.701,124.713l45.35-102.038
				h90.701l45.35,102.038L204.076,340.127z"/>
    </symbol>
    <symbol id="cup" viewBox="0 0 611.978 611.978">
        <path d="M611.907,131.704V85.418v-0.786c-1.571-16.214-12.357-27-27.786-28.571h-0.786h-92.571V35.204c0-14.643-12.357-27-27-27
		H139.836c-14.643,0-27,12.357-27,27v20.857H28.764h-0.786C12.55,56.846,1.764,68.418,0.193,84.632v0.786v46.286
		c-0.786,12.357-4.643,131.929,123.429,152c20.071,56.286,66.357,101.071,125,118v76.357l-101.857,48.571c0,0-0.786,0-0.786,0.786
		c-14.643,8.5-22.357,20.857-22.357,34.714v15.429v0.786c1.571,15.429,12.357,25.429,28.571,25.429h300.071
		c16.214,0,27.786-10,28.571-25.429v-0.786v-15.429c0-13.857-7.714-26.214-22.357-34.714l-0.786-0.786l-100.286-47.857v-77.786
		c56.286-17,101.857-60.929,122.643-116.5c43.214-5.429,76.357-21.571,99.5-48.571C615.05,193.418,611.907,139.418,611.907,131.704z
		 M115.907,253.632C21.05,231.275,27.979,138.704,28.764,134.061c0-0.786,0-0.786,0-1.571V86.204c0-0.786,0-1.571,0-1.571h0.786
		h83.286v135.786c0,5.429,0,10,0.786,15.429c0,0.786,0,1.571,0,1.571C114.336,242.846,115.122,247.418,115.907,253.632
		C115.907,252.846,115.907,252.846,115.907,253.632z M452.264,561.418v13.143l0,0H151.407l0,0v-13.143
		c0-3.857,4.643-7.714,7.714-9.286l104.929-49.357h75.571l104.929,49.357C447.622,553.704,452.264,557.561,452.264,561.418z
		 M328.05,409.418v64.786h-50.929v-64.786H328.05z M301.836,380.918c-72.5,0-133.429-47.857-153.5-113.429l0,0
		c-0.786-3.857-2.286-7.714-3.071-11.571l0,0c-1.571-6.929-2.286-14.643-3.071-21.571c0-0.786,0-1.571,0-2.286
		c0-3.857-0.786-6.929-0.786-10.786v-150.5V36.846H461.55v38.571v144.286c0,3.857,0,6.929-0.786,10.786c0,0.786,0,1.571,0,2.286
		c0,3.071-0.786,6.929-0.786,10v0.786c-0.786,3.857-1.571,6.929-2.286,10.786c0,0.786,0,1.571-0.786,2.286
		c-0.786,3.071-1.571,6.143-2.286,9.286C435.264,332.275,373.55,380.918,301.836,380.918z M557.193,218.132
		c-16.214,19.286-39.357,31.643-69.429,37v-0.786c0.786-5.429,1.571-10,2.286-15.429c0-0.786,0-1.571,0-1.571
		c0.786-5.429,0.786-10.786,0.786-16.214V84.704h91.786c0.786,0,0.786,0,0.786,0s0,0.786,0,1.571v46.286c0,0.786,0,0.786,0,1.571
		C583.407,134.846,587.264,181.846,557.193,218.132z M272.479,313.775c-2.286,5.429-7.714,9.286-13.143,9.286
		c-1.571,0-3.071,0-5.429-0.786c-47.071-17.714-57.071-60.143-56.286-79.429v-145c0-7.714,6.143-13.857,13.857-13.857
		c7.714,0,13.857,6.143,13.857,13.857v145.786c0,2.286-1.571,37.786,37.786,52.429C271.764,298.346,275.622,306.846,272.479,313.775
		z"/>
    </symbol>
</svg>